<?xml version="1.0" encoding="UTF-8"?>
<svg width="14px" height="10px" viewBox="0 0 14 10" version="1.1" xmlns="http://www.w3.org/2000/svg" xmlns:xlink="http://www.w3.org/1999/xlink">
    <!-- Generator: Sketch 56.3 (81716) - https://sketch.com -->
    <title>2</title>
    <desc>Created with Sketch.</desc>
    <g id="Final_0320" stroke="none" stroke-width="1" fill="none" fill-rule="evenodd">
        <g id="图鹰lp修改复制" transform="translate(-713.000000, -3324.000000)" fill-rule="nonzero">
            <g id="第五页" transform="translate(0.000000, 3003.000000)">
                <g id="平台自主训练流程" transform="translate(141.000000, 185.000000)">
                    <g id="编组-3" transform="translate(0.000000, 76.000000)">
                        <g id="编组-2" transform="translate(233.000000, 57.000000)">
                            <g id="2" transform="translate(346.000000, 8.000000) rotate(90.000000) translate(-346.000000, -8.000000) translate(338.000000, 0.000000)">
                                <rect id="Rectangle" fill="#000000" opacity="0" x="0" y="0" width="16" height="16"></rect>
                                <path d="M8,1.83168 C8.07456,1.83168 8.1448,1.86624 8.19024,1.92544 L12.71344,7.80864 C12.74672,7.85168 12.7632,7.90336 12.7632,7.95488 C12.7632,8.00576 12.74704,8.05648 12.71488,8.09936 C12.64992,8.1856 12.53536,8.21776 12.43504,8.17808 L9.44,6.99504 L9.44,13.92832 C9.44,14.06096 9.33264,14.16832 9.2,14.16832 L6.8,14.16832 C6.66736,14.16832 6.56,14.06096 6.56,13.92832 L6.56,6.99504 L3.56512,8.17808 C3.4648,8.21776 3.35024,8.18544 3.28528,8.09936 C3.22032,8.01328 3.22064,7.89424 3.28672,7.80864 L7.80976,1.92544 C7.8552,1.8664 7.92544,1.83168 8,1.83168 Z" id="Path" fill="#BCD4F3"></path>
                            </g>
                        </g>
                    </g>
                </g>
            </g>
        </g>
    </g>
</svg>